<svg xmlns="http://www.w3.org/2000/svg" viewBox="0 0 400 300" width="400" height="300">
  <defs>
    <linearGradient id="f" x1="0" y1="0" x2="0" y2="1">
      <stop offset="0" stop-color="#fce0ea"/>
      <stop offset="1" stop-color="#f6c3d7"/>
    </linearGradient>
  </defs>
  <rect width="400" height="300" fill="url(#f)"/>
  <circle cx="200" cy="152" r="108" fill="#ffffff" opacity="0.38"/>

  <path d="M150 202l10 44c1 8 7 12 16 12h48c9 0 15-4 16-12l10-44z" fill="#f6dee9"/>
  <g stroke="#e9bcd0" stroke-width="4">
    <path d="M172 206l5 48M200 206v48M228 206l-5 48"/>
  </g>
  <circle cx="200" cy="172" r="54" fill="#4a2c1d"/>
  <ellipse cx="180" cy="152" rx="16" ry="10" fill="#ffffff" opacity="0.18"/>
  <g fill="#f7c948">
    <circle cx="176" cy="186" r="4"/><circle cx="214" cy="150" r="4"/>
    <circle cx="222" cy="192" r="4"/><circle cx="196" cy="204" r="4"/>
    <circle cx="192" cy="142" r="4"/>
  </g>
</svg>
